Coordinates
version=1
nRows=5
nColumns=40
inDegrees=yes

Units are S.I. units (second, meters, Newtons, ...)
Angles are in degrees.

endheader
time	pelvis_tilt	pelvis_list	pelvis_rotation	pelvis_tx	pelvis_ty	pelvis_tz	hip_flexion_r	hip_adduction_r	hip_rotation_r	knee_angle_r	knee_angle_r_beta	ankle_angle_r	subtalar_angle_r	mtp_angle_r	hip_flexion_l	hip_adduction_l	hip_rotation_l	knee_angle_l	knee_angle_l_beta	ankle_angle_l	subtalar_angle_l	mtp_angle_l	lumbar_extension	lumbar_bending	lumbar_rotation	arm_flex_r	arm_add_r	arm_rot_r	elbow_flex_r	pro_sup_r	wrist_flex_r	wrist_dev_r	arm_flex_l	arm_add_l	arm_rot_l	elbow_flex_l	pro_sup_l	wrist_flex_l	wrist_dev_l
     11.10500000	     -6.39112706	     -5.30013773	      7.14564400	      0.99000791	      0.92767563	      0.49439172	     13.09659717	      3.50205282	    -17.90095973	     15.57186929	     15.57186929	     11.18303393	     -3.78063494	     -2.31446695	     41.85306392	     -8.16030901	      5.45067364	     50.59096911	     50.59096911	      8.52520305	    -18.41747380	     14.18070601	    -12.91976252	      4.00066521	      2.71467137	     15.82402320	    -15.20266132	     -4.70218606	     65.18685446	     45.13210920	      0.00000000	      0.00000000	      1.85842290	     -6.37181472	     -7.87454120	     28.76162369	     47.22055936	      0.00000000	      0.00000000
     11.11657143	     -6.44404523	     -5.13936411	      7.24987984	      0.98866287	      0.92771013	      0.49441386	     12.46316849	      3.44584670	    -17.90122536	     15.20935736	     15.20935736	     11.48776746	     -3.61154563	     -2.43909601	     42.19378579	     -7.58794814	      5.52324295	     47.30097755	     47.30097755	      8.58079637	    -17.95130078	     14.15890814	    -12.96543447	      3.76788783	      2.62966028	     18.30676075	    -15.11030721	     -4.70661992	     67.50055142	     45.06843355	      0.00000000	      0.00000000	      0.65836723	     -6.43716032	     -7.90976933	     27.38784253	     47.19770697	      0.00000000	      0.00000000
     11.12814286	     -6.50084976	     -5.05980431	      7.31741149	      0.98744622	      0.92759048	      0.49434847	     11.83088508	      3.46400023	    -17.97454741	     14.84263116	     14.84263116	     11.78765643	     -3.30425811	     -2.61027043	     42.44699977	     -7.09006559	      5.78626446	     44.04593290	     44.04593290	      8.61441710	    -17.19886323	     13.87544693	    -12.99858521	      3.67286431	      2.52402438	     20.78815914	    -15.04229721	     -4.48502062	     70.17930923	     44.98571549	      0.00000000	      0.00000000	     -0.52770374	     -6.47203074	     -7.92971347	     25.97804325	     47.17402648	      0.00000000	      0.00000000
     11.13971429	     -6.69158004	     -5.10144751	      7.32108671	      0.98623833	      0.92712466	      0.49426097	     11.43113109	      3.57901686	    -17.98862830	     14.61016198	     14.61016198	     12.08974096	     -3.12678372	     -2.75700646	     42.82409636	     -6.73725997	      6.16666309	     40.96386569	     40.96386569	      8.85392408	    -16.03211794	     13.85598522	    -12.81160569	      3.65825358	      3.05346678	     23.23263573	    -15.45655687	     -4.55344730	     71.84602198	     44.94531050	      0.00000000	      0.00000000	     -1.56589728	     -6.37353087	     -7.93973929	     25.26233722	     47.15547353	      0.00000000	      0.00000000
     11.15128571	     -6.58370967	     -5.12168412	      7.31636982	      0.98558419	      0.92706404	      0.49409431	     10.45874349	      3.74194393	    -18.23687633	     13.98012309	     13.98012309	     12.34718709	     -2.32401412	     -2.99444357	     42.70657963	     -6.49373695	      6.50506436	     37.92392472	     37.92392472	      8.84075091	    -14.63547166	     12.79931783	    -12.99213520	      3.71969594	      2.74096321	     25.48140022	    -15.29113072	     -3.45669538	     76.02523014	     44.78953456	      0.00000000	      0.00000000	     -2.84498798	     -6.44755665	     -7.92726045	     23.89155593	     47.12084712	      0.00000000	      0.00000000
